<svg id="Multicolor" xmlns="http://www.w3.org/2000/svg" xmlns:xlink="http://www.w3.org/1999/xlink" viewBox="0 0 100 112"><defs><style>.cls-1,.cls-4{fill:none;}.cls-2{fill:#e8f4fa;}.cls-3{fill:#fff;}.cls-18,.cls-19,.cls-22,.cls-23,.cls-25,.cls-28,.cls-29,.cls-31,.cls-33,.cls-34,.cls-4,.cls-6{stroke:#191816;stroke-linecap:round;stroke-linejoin:round;}.cls-26,.cls-5{fill:#191816;}.cls-5{opacity:0.15;}.cls-6,.cls-7{fill:#b89558;}.cls-8{fill:#947746;}.cls-25,.cls-9{fill:#debb7e;}.cls-10{fill:#ff6242;}.cls-11{fill:#ff866e;}.cls-12{clip-path:url(#clip-path);}.cls-13{fill:#6dd627;}.cls-14{fill:#9ceb60;}.cls-15{fill:#bf8256;}.cls-16{fill:#915e3a;}.cls-17{fill:#dea47a;}.cls-18{fill:#ffe500;}.cls-19{fill:#ffcebf;}.cls-20,.cls-22{fill:#009fd9;}.cls-21,.cls-33{fill:#00b8f0;}.cls-23{fill:#80ddff;}.cls-24,.cls-31{fill:#f0d5a8;}.cls-27{fill:#ffb59e;}.cls-28{fill:#a86c4d;}.cls-29{fill:#c0dceb;}.cls-30{fill:#daedf7;}.cls-32,.cls-34{fill:#ff8a14;}</style><clipPath id="clip-path"><path class="cls-1" d="M50.5,16a40,40,0,1,0,40,40A40,40,0,0,0,50.5,16Z"/></clipPath></defs><title>07- digital-nomad-male-caucasian-1</title><g id="Background"><g id="New_Symbol_83-14" data-name="New Symbol 83"><path class="cls-2" d="M90.5,56A40,40,0,1,0,14.06,72.5H86.94A39.85,39.85,0,0,0,90.5,56Z"/><path class="cls-3" d="M14.06,72.5a40,40,0,0,0,72.88,0Z"/><line class="cls-4" x1="11.5" y1="72.5" x2="89.5" y2="72.5"/><line class="cls-4" x1="7" y1="72.5" x2="9.5" y2="72.5"/><line class="cls-4" x1="91.5" y1="72.5" x2="94" y2="72.5"/></g></g><g id="Scene"><ellipse class="cls-5" cx="23.16" cy="84.73" rx="9.77" ry="1.73"/><path class="cls-6" d="M81.29,62.25l-15,15L62.84,73.8l15-15a1.14,1.14,0,0,1,1.62,0l1.83,1.83A1.14,1.14,0,0,1,81.29,62.25Z"/><path class="cls-7" d="M23.16,78.4h3.45a0,0,0,0,1,0,0v2.45a1,1,0,0,1-1,1H24.16a1,1,0,0,1-1-1V78.4A0,0,0,0,1,23.16,78.4Z"/><rect class="cls-8" x="23.16" y="78.4" width="3.45" height="1.72"/><path class="cls-4" d="M23.16,78.4h3.45a0,0,0,0,1,0,0v2.45a1,1,0,0,1-1,1H24.16a1,1,0,0,1-1-1V78.4A0,0,0,0,1,23.16,78.4Z"/><path class="cls-7" d="M77.79,78.4h3.45a0,0,0,0,1,0,0v2.45a1,1,0,0,1-1,1H78.79a1,1,0,0,1-1-1V78.4A0,0,0,0,1,77.79,78.4Z"/><rect class="cls-8" x="77.79" y="78.4" width="3.45" height="1.72"/><path class="cls-4" d="M77.79,78.4h3.45a0,0,0,0,1,0,0v2.45a1,1,0,0,1-1,1H78.79a1,1,0,0,1-1-1V78.4A0,0,0,0,1,77.79,78.4Z"/><rect class="cls-7" x="20.86" y="73.8" width="62.67" height="4.6" rx="1.15" ry="1.15"/><path class="cls-9" d="M22,73.8A1.16,1.16,0,0,0,20.86,75v.58H83.54V75a1.16,1.16,0,0,0-1.15-1.15Z"/><rect class="cls-4" x="20.86" y="73.8" width="62.67" height="4.6" rx="1.15" ry="1.15"/><line class="cls-4" x1="78.94" y1="73.8" x2="74.34" y2="69.2"/><path class="cls-10" d="M77.5,59.14,62.84,73.8H23.16V71.5a2.3,2.3,0,0,1,2.3-2.3H58.24L69.65,57.79a4.59,4.59,0,0,1,6.5,0Z"/><path class="cls-11" d="M77.5,59.14l-.21.21a4.6,4.6,0,0,0-6.21.27L60,70.69a1.13,1.13,0,0,1-.81.34H25.46a2.31,2.31,0,0,0-2.3,2.3V71.5a2.31,2.31,0,0,1,2.3-2.3H58.24L69.65,57.79a4.61,4.61,0,0,1,6.5,0Z"/><path class="cls-4" d="M77.5,59.14,62.84,73.8H23.16V71.5a2.3,2.3,0,0,1,2.3-2.3H58.24L69.65,57.79a4.59,4.59,0,0,1,6.5,0Z"/><ellipse class="cls-5" cx="51.34" cy="83" rx="32.78" ry="1.72"/><g class="cls-12"><path class="cls-13" d="M82.2,45.48a.83.83,0,0,1-1.36-.6c-.16-4.37.08-15.66,6.41-19.69,2.18-1.38,4.69.82,6,2.22a.82.82,0,0,1-.41,1.35l-2.51.65a.82.82,0,0,0-.4,1.35l.67.72a.82.82,0,0,1-.22,1.29L88,34a.81.81,0,0,0-.34,1.11L89,37.62a.83.83,0,0,1-.39,1.14l-3.18,1.45a.82.82,0,0,0-.28,1.28l.42.5a.82.82,0,0,1-.24,1.25A19.55,19.55,0,0,0,82.2,45.48Z"/><path class="cls-14" d="M88.71,27.66c1.52-1,3.2-.19,4.51.85a.81.81,0,0,0,0-1.1c-1.29-1.4-3.8-3.6-6-2.22-6.33,4-6.57,15.32-6.41,19.69a.83.83,0,0,0,1.36.6l.07-.06C82.3,40.28,83.17,31.19,88.71,27.66Z"/><path class="cls-4" d="M82.2,45.48a.83.83,0,0,1-1.36-.6c-.16-4.37.08-15.66,6.41-19.69,2.18-1.38,4.69.82,6,2.22a.82.82,0,0,1-.41,1.35l-2.51.65a.82.82,0,0,0-.4,1.35l.67.72a.82.82,0,0,1-.22,1.29L88,34a.81.81,0,0,0-.34,1.11L89,37.62a.83.83,0,0,1-.39,1.14l-3.18,1.45a.82.82,0,0,0-.28,1.28l.42.5a.82.82,0,0,1-.24,1.25A19.55,19.55,0,0,0,82.2,45.48Z"/><path class="cls-13" d="M80.58,46.14a.83.83,0,0,0,.76-1.28c-2.42-3.64-9.21-12.67-16.7-12.24-2.58.14-3.33,3.4-3.56,5.29a.82.82,0,0,0,1.12.85l2.42-.94a.83.83,0,0,1,1.11.88l-.12,1a.82.82,0,0,0,.93.92l2.61-.37a.84.84,0,0,1,.93.71l.39,2.81a.82.82,0,0,0,1,.69l3.42-.68a.82.82,0,0,1,1,.88l0,.65a.83.83,0,0,0,.92.88A19,19,0,0,1,80.58,46.14Z"/><path class="cls-14" d="M64.89,35.06c6.78-.39,13,7,15.89,11.07a.83.83,0,0,0,.56-1.27c-2.42-3.64-9.21-12.67-16.7-12.24-2.58.14-3.33,3.4-3.56,5.29a.83.83,0,0,0,.54.86C62,37,63,35.17,64.89,35.06Z"/><path class="cls-4" d="M80.58,46.14a.83.83,0,0,0,.76-1.28c-2.42-3.64-9.21-12.67-16.7-12.24-2.58.14-3.33,3.4-3.56,5.29a.82.82,0,0,0,1.12.85l2.42-.94a.83.83,0,0,1,1.11.88l-.12,1a.82.82,0,0,0,.93.92l2.61-.37a.84.84,0,0,1,.93.71l.39,2.81a.82.82,0,0,0,1,.69l3.42-.68a.82.82,0,0,1,1,.88l0,.65a.83.83,0,0,0,.92.88A19,19,0,0,1,80.58,46.14Z"/><path class="cls-13" d="M82.08,47.29s-14-8.69-22-3.81c-2.21,1.34-1.34,4.57-.65,6.34a.83.83,0,0,0,1.39.23l1.69-2a.82.82,0,0,1,1.39.24l.35.92a.83.83,0,0,0,1.26.37l2.13-1.55a.83.83,0,0,1,1.15.19l1.67,2.29a.82.82,0,0,0,1.18.15l2.71-2.21a.82.82,0,0,1,1.27.31l.26.6a.82.82,0,0,0,1.23.34A21.24,21.24,0,0,1,82.08,47.29Z"/><path class="cls-14" d="M59.77,46c5.95-3.61,15.19.23,19.56,2.46a23.71,23.71,0,0,1,2.75-1.14s-14-8.69-22-3.81c-1.32.8-1.54,2.28-1.35,3.71A2.71,2.71,0,0,1,59.77,46Z"/><path class="cls-13" d="M83.86,47a.82.82,0,0,1-1.06-1c1.26-3.67,4.81-12.22,10.91-13.51,2.05-.43,3.36,1.83,4,3.35a.82.82,0,0,1-.85,1.13l-1.77-.19a.83.83,0,0,0-.85,1.13l.17.44a.82.82,0,0,1-.65,1.13l-1.94.24a.83.83,0,0,0-.72.92l.27,2.14a.82.82,0,0,1-.76.92l-2.67.18a.82.82,0,0,0-.71,1.1l.08.23a.82.82,0,0,1-.64,1.09A17.24,17.24,0,0,0,83.86,47Z"/><path class="cls-14" d="M83.75,47c1.61-4.12,5-10.78,10.32-11.9,1.38-.3,2.44.65,3.17,1.76a.81.81,0,0,0,.47-1.08c-.64-1.52-1.95-3.78-4-3.35-6.1,1.29-9.65,9.84-10.91,13.51A.82.82,0,0,0,83.75,47Z"/><path class="cls-4" d="M82.08,47.29s-14-8.69-22-3.81c-2.21,1.34-1.34,4.57-.65,6.34a.83.83,0,0,0,1.39.23l1.69-2a.82.82,0,0,1,1.39.24l.35.92a.83.83,0,0,0,1.26.37l2.13-1.55a.83.83,0,0,1,1.15.19l1.67,2.29a.82.82,0,0,0,1.18.15l2.71-2.21a.82.82,0,0,1,1.27.31l.26.6a.82.82,0,0,0,1.23.34A21.24,21.24,0,0,1,82.08,47.29Z"/><path class="cls-4" d="M83.86,47a.82.82,0,0,1-1.06-1c1.26-3.67,4.81-12.22,10.91-13.51,2.05-.43,3.36,1.83,4,3.35a.82.82,0,0,1-.85,1.13l-1.77-.19a.83.83,0,0,0-.85,1.13l.17.44a.82.82,0,0,1-.65,1.13l-1.94.24a.83.83,0,0,0-.72.92l.27,2.14a.82.82,0,0,1-.76.92l-2.67.18a.82.82,0,0,0-.71,1.1l.08.23a.82.82,0,0,1-.64,1.09A17.24,17.24,0,0,0,83.86,47Z"/><path class="cls-15" d="M94.9,72.5c1.65-16-11.52-27.17-11.52-27.17L80.91,47.8s7.82,11.53,5.76,24.7Z"/><path class="cls-16" d="M84.85,49.81a4.23,4.23,0,0,0,2-.89,32.06,32.06,0,0,0-3.44-3.59L80.91,47.8A35,35,0,0,1,83.21,52,4.19,4.19,0,0,0,84.85,49.81Z"/><path class="cls-17" d="M83.38,45.33l-1.29,1.28C84.44,48.8,94.16,58.76,93.17,72.5H94.9C96.55,56.45,83.38,45.33,83.38,45.33Z"/><path class="cls-4" d="M94.9,72.5c1.65-16-11.52-27.17-11.52-27.17L80.91,47.8s7.82,11.53,5.76,24.7Z"/><path class="cls-4" d="M85.41,57.73a25.48,25.48,0,0,0,5.53-2.86"/><path class="cls-4" d="M88.6,51.2a25.78,25.78,0,0,1-4.49,2.86"/><path class="cls-4" d="M87,66.5a23.33,23.33,0,0,0,7.69-1.29"/><path class="cls-4" d="M93,59.17a24.46,24.46,0,0,1-6.58,2.58"/><path class="cls-4" d="M95,70.35a22.7,22.7,0,0,1-8.17.58"/><path class="cls-7" d="M86.67,45.74a2.47,2.47,0,1,1-2.47-2.47A2.47,2.47,0,0,1,86.67,45.74Z"/><path class="cls-9" d="M84.2,44.51a2.46,2.46,0,0,1,2.38,1.85,2.51,2.51,0,0,0,.09-.62,2.47,2.47,0,1,0-4.94,0,2.51,2.51,0,0,0,.09.62A2.46,2.46,0,0,1,84.2,44.51Z"/><path class="cls-4" d="M86.67,45.74a2.47,2.47,0,1,1-2.47-2.47A2.47,2.47,0,0,1,86.67,45.74Z"/><path class="cls-7" d="M83.38,48.63a2.47,2.47,0,1,1-2.47-2.47A2.48,2.48,0,0,1,83.38,48.63Z"/><path class="cls-9" d="M80.91,47.8a2.45,2.45,0,0,1,2.31,1.65,2.26,2.26,0,0,0,.16-.82,2.47,2.47,0,1,0-4.79.82A2.46,2.46,0,0,1,80.91,47.8Z"/><path class="cls-4" d="M83.38,48.63a2.47,2.47,0,1,1-2.47-2.47A2.48,2.48,0,0,1,83.38,48.63Z"/></g><path class="cls-18" d="M50.19,69.2h-8a3.44,3.44,0,0,1-3.45-3.45v-2.3h15v2.3A3.45,3.45,0,0,1,50.19,69.2Z"/><path class="cls-19" d="M53.64,61.73v1.72h-15V61.73h-4V56a11.5,11.5,0,1,1,23,0v5.75Z"/><line class="cls-4" x1="38.69" y1="53.68" x2="38.69" y2="65.75"/><line class="cls-4" x1="53.64" y1="53.68" x2="53.64" y2="65.75"/><path class="cls-19" d="M38.69,65.75H37a2.3,2.3,0,0,1-2.3-2.3V61.73h4Z"/><path class="cls-19" d="M55.36,65.75H53.64v-4h4v1.72A2.3,2.3,0,0,1,55.36,65.75Z"/><path class="cls-20" d="M43.86,47.93,42.3,45.15h0a11.33,11.33,0,0,0-3.61,2.1l-.11.1A11.43,11.43,0,0,0,34.66,56v5.75h4v6.9l2.63.75a1.16,1.16,0,0,0,1.47-1Z"/><path class="cls-21" d="M43.87,48.16c0-.15,0-.23,0-.23L42.3,45.15l-.3.12a11.21,11.21,0,0,0-3.31,2l-.11.1A11.43,11.43,0,0,0,34.66,56v3.45A11.5,11.5,0,0,1,43.87,48.16Z"/><path class="cls-22" d="M42.3,45.15h0a11.33,11.33,0,0,0-3.61,2.1l-.11.1.11.17,1.09,1.72a1.15,1.15,0,0,0,1.61.33l2.47-1.64Z"/><line class="cls-4" x1="38.69" y1="61.73" x2="38.69" y2="53.68"/><path class="cls-4" d="M43.86,47.93,42.3,45.15h0a11.33,11.33,0,0,0-3.61,2.1l-.11.1A11.43,11.43,0,0,0,34.66,56v5.75h4v6.9l2.63.75a1.16,1.16,0,0,0,1.47-1Z"/><path class="cls-23" d="M34.59,59.43h4.1a0,0,0,0,1,0,0v2.3a0,0,0,0,1,0,0h-4.1a.5.5,0,0,1-.5-.5v-1.3A.5.5,0,0,1,34.59,59.43Z"/><path class="cls-20" d="M48.46,47.93,50,45.15h0a11.49,11.49,0,0,1,3.62,2.1l.11.1A11.45,11.45,0,0,1,57.66,56v5.75h-4v6.9L51,69.38a1.15,1.15,0,0,1-1.46-1Z"/><path class="cls-21" d="M48.46,48.16v-.23L50,45.15l.31.12a11.47,11.47,0,0,1,3.31,2l.11.1A11.45,11.45,0,0,1,57.66,56v3.45A11.49,11.49,0,0,0,48.46,48.16Z"/><path class="cls-22" d="M50,45.15h0a11.49,11.49,0,0,1,3.62,2.1l.11.1-.11.17-1.1,1.72a1.14,1.14,0,0,1-1.6.33l-2.48-1.64Z"/><line class="cls-4" x1="53.64" y1="61.73" x2="53.64" y2="53.68"/><path class="cls-4" d="M48.46,47.93,50,45.15h0a11.49,11.49,0,0,1,3.62,2.1l.11.1A11.45,11.45,0,0,1,57.66,56v5.75h-4v6.9L51,69.38a1.15,1.15,0,0,1-1.46-1Z"/><path class="cls-23" d="M54.14,59.43h4.1a0,0,0,0,1,0,0v2.3a0,0,0,0,1,0,0h-4.1a.5.5,0,0,1-.5-.5v-1.3A.5.5,0,0,1,54.14,59.43Z" transform="translate(111.87 121.15) rotate(180)"/><path class="cls-19" d="M55.4,69a2.87,2.87,0,0,0-2.81-3.21,3,3,0,0,0-2.92,2.7L48.48,78.57A2.88,2.88,0,0,0,51,81.76h0a2.87,2.87,0,0,0,3.19-2.52Z"/><path class="cls-19" d="M36.92,69a2.88,2.88,0,0,1,2.82-3.21,3,3,0,0,1,2.91,2.7l1.19,10.12a2.88,2.88,0,0,1-2.52,3.19h0a2.88,2.88,0,0,1-3.19-2.52Z"/><path class="cls-9" d="M48.25,20.9H44.08a2.3,2.3,0,0,0-2,1.2l-2.8,5.13h13.8L50.27,22.1A2.31,2.31,0,0,0,48.25,20.9Z"/><path class="cls-24" d="M43,23.2h6.25a4.7,4.7,0,0,1,1.75.32l-.77-1.42a2.31,2.31,0,0,0-2-1.2H44.08a2.3,2.3,0,0,0-2,1.2l-.78,1.42A4.79,4.79,0,0,1,43,23.2Z"/><path class="cls-4" d="M48.25,20.9H44.08a2.3,2.3,0,0,0-2,1.2l-2.8,5.13h13.8L50.27,22.1A2.31,2.31,0,0,0,48.25,20.9Z"/><path class="cls-25" d="M56.51,30.1c0,3.18-4.63,4.6-10.35,4.6s-10.35-1.42-10.35-4.6,4.64-5.17,10.35-5.17S56.51,26.93,56.51,30.1Z"/><path class="cls-19" d="M53.06,33.9V33a6.84,6.84,0,0,0-1.28-4,12.51,12.51,0,0,0-5.62-1.18A12.51,12.51,0,0,0,40.54,29a6.91,6.91,0,0,0-1.28,4v.92a1.41,1.41,0,0,0-1.15,1.38,1.43,1.43,0,0,0,1.3,1.41,6.9,6.9,0,0,0,13.51,0,1.43,1.43,0,0,0,1.29-1.41A1.41,1.41,0,0,0,53.06,33.9Z"/><path class="cls-26" d="M43.58,33a.86.86,0,1,0,.86.86.86.86,0,0,0-.86-.86Z"/><path class="cls-26" d="M48.75,33a.86.86,0,1,0,.86.86.85.85,0,0,0-.86-.86Z"/><circle class="cls-27" cx="42.42" cy="36.14" r="0.86"/><circle class="cls-27" cx="49.9" cy="36.14" r="0.86"/><path class="cls-4" d="M44.44,38.2a3.1,3.1,0,0,0,3.45,0"/><path class="cls-28" d="M46.16,27.8A12.38,12.38,0,0,0,40.53,29a6.84,6.84,0,0,0-1.27,4v.63a1.93,1.93,0,0,0,1.9-1.91,1.36,1.36,0,0,1,1.6-1.13,17.22,17.22,0,0,0,6.81,0,1.36,1.36,0,0,1,1.6,1.13,1.92,1.92,0,0,0,1.89,1.91V33a6.84,6.84,0,0,0-1.27-4A12.38,12.38,0,0,0,46.16,27.8Z"/><path class="cls-29" d="M54.21,65.75H38.11A1.15,1.15,0,0,1,37,64.6V63.45h18.4V64.6A1.14,1.14,0,0,1,54.21,65.75Z"/><rect class="cls-30" x="36.96" y="51.95" width="18.4" height="11.5" rx="1.15" ry="1.15"/><path class="cls-2" d="M54.21,52H38.11A1.16,1.16,0,0,0,37,53.1v2.3a1.16,1.16,0,0,1,1.15-1.15h16.1a1.15,1.15,0,0,1,1.15,1.15V53.1A1.15,1.15,0,0,0,54.21,52Z"/><rect class="cls-4" x="36.96" y="51.95" width="18.4" height="11.5" rx="1.15" ry="1.15"/><circle class="cls-18" cx="46.16" cy="58.28" r="1.72"/><polyline class="cls-4" points="47.31 54.25 46.16 55.4 46.16 56.55"/><path class="cls-24" d="M29.31,84.91a1.22,1.22,0,0,1-1.81-.11L16.26,70.35,18,68.63,29.41,83.31a1.22,1.22,0,0,1-.1,1.6Z"/><polygon class="cls-9" points="21.56 73.23 18.49 73.23 16.26 70.35 17.99 68.63 21.56 73.23"/><path class="cls-4" d="M29.31,84.91a1.22,1.22,0,0,1-1.81-.11L16.26,70.35,18,68.63,29.41,83.31a1.22,1.22,0,0,1-.1,1.6Z"/><path class="cls-24" d="M17,84.91a1.22,1.22,0,0,0,1.81-.11L30.06,70.35l-1.72-1.72L16.92,83.31a1.21,1.21,0,0,0,.1,1.6Z"/><polygon class="cls-9" points="30.06 70.35 27.83 73.23 24.76 73.23 28.34 68.63 30.06 70.35"/><path class="cls-4" d="M17,84.91a1.22,1.22,0,0,0,1.81-.11L30.06,70.35l-1.72-1.72L16.92,83.31a1.21,1.21,0,0,0,.1,1.6Z"/><path class="cls-31" d="M32.94,69.2a1.15,1.15,0,0,1-1.15,1.15H14.54a1.15,1.15,0,0,1,0-2.3H31.79A1.16,1.16,0,0,1,32.94,69.2Z"/><path class="cls-21" d="M25.46,54.25a4,4,0,0,0-1.15,2.3c0,2.3,1.15,2.3,1.15,4S23.92,63.45,22,63.45s-3.45-1.15-3.45-2.87,1.15-1.73,1.15-4a4,4,0,0,0-1.15-2.3Z"/><path class="cls-13" d="M24.41,56H19.62a2.26,2.26,0,0,1,.09.57c0,2.3-1.15,2.3-1.15,4s1.55,2.87,3.45,2.87,3.45-1.15,3.45-2.87-1.15-1.73-1.15-4A1.9,1.9,0,0,1,24.41,56Z"/><path class="cls-32" d="M19.39,58.28a4.57,4.57,0,0,0-.83,2.3c0,1.72,1.55,2.87,3.45,2.87s3.45-1.15,3.45-2.87a4.57,4.57,0,0,0-.82-2.3Z"/><path class="cls-10" d="M22,63.45c1.91,0,3.45-1.15,3.45-2.87h-6.9C18.56,62.3,20.11,63.45,22,63.45Z"/><path class="cls-33" d="M19.14,68.05A2.63,2.63,0,0,1,22,65.75a2.64,2.64,0,0,1,2.88,2.3Z"/><circle class="cls-33" cx="22.01" cy="64.6" r="1.15"/><path class="cls-4" d="M25.46,54.25a4,4,0,0,0-1.15,2.3c0,2.3,1.15,2.3,1.15,4S23.92,63.45,22,63.45s-3.45-1.15-3.45-2.87,1.15-1.73,1.15-4a4,4,0,0,0-1.15-2.3Z"/><path class="cls-4" d="M24.89,50.23A1.72,1.72,0,0,0,23.16,52v2.3"/><path class="cls-34" d="M16.94,55.88a2.3,2.3,0,0,1,3.25-3.25Z"/></g></svg>